<?xml version="1.0" encoding="utf-8" standalone="no"?>
<!DOCTYPE svg PUBLIC "-//W3C//DTD SVG 1.1//EN"
  "http://www.w3.org/Graphics/SVG/1.1/DTD/svg11.dtd">
<svg xmlns:xlink="http://www.w3.org/1999/xlink" width="792pt" height="360pt" viewBox="0 0 792 360" xmlns="http://www.w3.org/2000/svg" version="1.1">
 <metadata>
  <rdf:RDF xmlns:dc="http://purl.org/dc/elements/1.1/" xmlns:cc="http://creativecommons.org/ns#" xmlns:rdf="http://www.w3.org/1999/02/22-rdf-syntax-ns#">
   <cc:Work>
    <dc:type rdf:resource="http://purl.org/dc/dcmitype/StillImage"/>
    <dc:date>2024-08-04T17:37:33.707340</dc:date>
    <dc:format>image/svg+xml</dc:format>
    <dc:creator>
     <cc:Agent>
      <dc:title>Matplotlib v3.5.3, https://matplotlib.org/</dc:title>
     </cc:Agent>
    </dc:creator>
   </cc:Work>
  </rdf:RDF>
 </metadata>
 <defs>
  <style type="text/css">*{stroke-linejoin: round; stroke-linecap: butt}</style>
 </defs>
 <g id="figure_1">
  <g id="patch_1">
   <path d="M 0 360 
L 792 360 
L 792 0 
L 0 0 
z
" style="fill: #ffffff"/>
  </g>
  <g id="axes_1">
   <g id="patch_2">
    <path d="M 99 320.4 
L 712.8 320.4 
L 712.8 43.2 
L 99 43.2 
z
" style="fill: #ffffff"/>
   </g>
   <g id="PolyCollection_1">
    <defs>
     <path id="mb3ab08ba6e" d="M 365.2528 -316.8 
L 365.2528 -39.6 
L 462.9152 -39.6 
L 462.9152 -316.8 
L 462.9152 -316.8 
L 365.2528 -316.8 
z
" style="stroke: #808080; stroke-opacity: 0.2"/>
    </defs>
    <g clip-path="url(#p26be60be98)">
     <use xlink:href="#mb3ab08ba6e" x="0" y="360" style="fill: #808080; fill-opacity: 0.2; stroke: #808080; stroke-opacity: 0.2"/>
    </g>
   </g>
   <g id="matplotlib.axis_1">
    <g id="xtick_1">
     <g id="line2d_1">
      <defs>
       <path id="m8f03397fd1" d="M 0 0 
L 0 3.5 
" style="stroke: #000000; stroke-width: 0.8"/>
      </defs>
      <g>
       <use xlink:href="#m8f03397fd1" x="104.456" y="320.4" style="stroke: #000000; stroke-width: 0.8"/>
      </g>
     </g>
     <g id="text_1">
      <!-- 0.0 -->
      <g transform="translate(93.323813 338.037813)scale(0.14 -0.14)">
       <defs>
        <path id="DejaVuSans-30" d="M 2034 4250 
Q 1547 4250 1301 3770 
Q 1056 3291 1056 2328 
Q 1056 1369 1301 889 
Q 1547 409 2034 409 
Q 2525 409 2770 889 
Q 3016 1369 3016 2328 
Q 3016 3291 2770 3770 
Q 2525 4250 2034 4250 
z
M 2034 4750 
Q 2819 4750 3233 4129 
Q 3647 3509 3647 2328 
Q 3647 1150 3233 529 
Q 2819 -91 2034 -91 
Q 1250 -91 836 529 
Q 422 1150 422 2328 
Q 422 3509 836 4129 
Q 1250 4750 2034 4750 
z
" transform="scale(0.015625)"/>
        <path id="DejaVuSans-2e" d="M 684 794 
L 1344 794 
L 1344 0 
L 684 0 
L 684 794 
z
" transform="scale(0.015625)"/>
       </defs>
       <use xlink:href="#DejaVuSans-30"/>
       <use xlink:href="#DejaVuSans-2e" x="63.623047"/>
       <use xlink:href="#DejaVuSans-30" x="95.410156"/>
      </g>
     </g>
    </g>
    <g id="xtick_2">
     <g id="line2d_2">
      <g>
       <use xlink:href="#m8f03397fd1" x="213.576" y="320.4" style="stroke: #000000; stroke-width: 0.8"/>
      </g>
     </g>
     <g id="text_2">
      <!-- 5000.0 -->
      <g transform="translate(189.082563 338.037813)scale(0.14 -0.14)">
       <defs>
        <path id="DejaVuSans-35" d="M 691 4666 
L 3169 4666 
L 3169 4134 
L 1269 4134 
L 1269 2991 
Q 1406 3038 1543 3061 
Q 1681 3084 1819 3084 
Q 2600 3084 3056 2656 
Q 3513 2228 3513 1497 
Q 3513 744 3044 326 
Q 2575 -91 1722 -91 
Q 1428 -91 1123 -41 
Q 819 9 494 109 
L 494 744 
Q 775 591 1075 516 
Q 1375 441 1709 441 
Q 2250 441 2565 725 
Q 2881 1009 2881 1497 
Q 2881 1984 2565 2268 
Q 2250 2553 1709 2553 
Q 1456 2553 1204 2497 
Q 953 2441 691 2322 
L 691 4666 
z
" transform="scale(0.015625)"/>
       </defs>
       <use xlink:href="#DejaVuSans-35"/>
       <use xlink:href="#DejaVuSans-30" x="63.623047"/>
       <use xlink:href="#DejaVuSans-30" x="127.246094"/>
       <use xlink:href="#DejaVuSans-30" x="190.869141"/>
       <use xlink:href="#DejaVuSans-2e" x="254.492188"/>
       <use xlink:href="#DejaVuSans-30" x="286.279297"/>
      </g>
     </g>
    </g>
    <g id="xtick_3">
     <g id="line2d_3">
      <g>
       <use xlink:href="#m8f03397fd1" x="322.696" y="320.4" style="stroke: #000000; stroke-width: 0.8"/>
      </g>
     </g>
     <g id="text_3">
      <!-- 10000.0 -->
      <g transform="translate(293.748813 338.037813)scale(0.14 -0.14)">
       <defs>
        <path id="DejaVuSans-31" d="M 794 531 
L 1825 531 
L 1825 4091 
L 703 3866 
L 703 4441 
L 1819 4666 
L 2450 4666 
L 2450 531 
L 3481 531 
L 3481 0 
L 794 0 
L 794 531 
z
" transform="scale(0.015625)"/>
       </defs>
       <use xlink:href="#DejaVuSans-31"/>
       <use xlink:href="#DejaVuSans-30" x="63.623047"/>
       <use xlink:href="#DejaVuSans-30" x="127.246094"/>
       <use xlink:href="#DejaVuSans-30" x="190.869141"/>
       <use xlink:href="#DejaVuSans-30" x="254.492188"/>
       <use xlink:href="#DejaVuSans-2e" x="318.115234"/>
       <use xlink:href="#DejaVuSans-30" x="349.902344"/>
      </g>
     </g>
    </g>
    <g id="xtick_4">
     <g id="line2d_4">
      <g>
       <use xlink:href="#m8f03397fd1" x="431.816" y="320.4" style="stroke: #000000; stroke-width: 0.8"/>
      </g>
     </g>
     <g id="text_4">
      <!-- 15000.0 -->
      <g transform="translate(402.868813 338.037813)scale(0.14 -0.14)">
       <use xlink:href="#DejaVuSans-31"/>
       <use xlink:href="#DejaVuSans-35" x="63.623047"/>
       <use xlink:href="#DejaVuSans-30" x="127.246094"/>
       <use xlink:href="#DejaVuSans-30" x="190.869141"/>
       <use xlink:href="#DejaVuSans-30" x="254.492188"/>
       <use xlink:href="#DejaVuSans-2e" x="318.115234"/>
       <use xlink:href="#DejaVuSans-30" x="349.902344"/>
      </g>
     </g>
    </g>
    <g id="xtick_5">
     <g id="line2d_5">
      <g>
       <use xlink:href="#m8f03397fd1" x="540.936" y="320.4" style="stroke: #000000; stroke-width: 0.8"/>
      </g>
     </g>
     <g id="text_5">
      <!-- 20000.0 -->
      <g transform="translate(511.988813 338.037813)scale(0.14 -0.14)">
       <defs>
        <path id="DejaVuSans-32" d="M 1228 531 
L 3431 531 
L 3431 0 
L 469 0 
L 469 531 
Q 828 903 1448 1529 
Q 2069 2156 2228 2338 
Q 2531 2678 2651 2914 
Q 2772 3150 2772 3378 
Q 2772 3750 2511 3984 
Q 2250 4219 1831 4219 
Q 1534 4219 1204 4116 
Q 875 4013 500 3803 
L 500 4441 
Q 881 4594 1212 4672 
Q 1544 4750 1819 4750 
Q 2544 4750 2975 4387 
Q 3406 4025 3406 3419 
Q 3406 3131 3298 2873 
Q 3191 2616 2906 2266 
Q 2828 2175 2409 1742 
Q 1991 1309 1228 531 
z
" transform="scale(0.015625)"/>
       </defs>
       <use xlink:href="#DejaVuSans-32"/>
       <use xlink:href="#DejaVuSans-30" x="63.623047"/>
       <use xlink:href="#DejaVuSans-30" x="127.246094"/>
       <use xlink:href="#DejaVuSans-30" x="190.869141"/>
       <use xlink:href="#DejaVuSans-30" x="254.492188"/>
       <use xlink:href="#DejaVuSans-2e" x="318.115234"/>
       <use xlink:href="#DejaVuSans-30" x="349.902344"/>
      </g>
     </g>
    </g>
    <g id="xtick_6">
     <g id="line2d_6">
      <g>
       <use xlink:href="#m8f03397fd1" x="650.056" y="320.4" style="stroke: #000000; stroke-width: 0.8"/>
      </g>
     </g>
     <g id="text_6">
      <!-- 25000.0 -->
      <g transform="translate(621.108813 338.037813)scale(0.14 -0.14)">
       <use xlink:href="#DejaVuSans-32"/>
       <use xlink:href="#DejaVuSans-35" x="63.623047"/>
       <use xlink:href="#DejaVuSans-30" x="127.246094"/>
       <use xlink:href="#DejaVuSans-30" x="190.869141"/>
       <use xlink:href="#DejaVuSans-30" x="254.492188"/>
       <use xlink:href="#DejaVuSans-2e" x="318.115234"/>
       <use xlink:href="#DejaVuSans-30" x="349.902344"/>
      </g>
     </g>
    </g>
    <g id="text_7">
     <!-- Cycles -->
     <g transform="translate(376.613438 358.626562)scale(0.18 -0.18)">
      <defs>
       <path id="DejaVuSans-43" d="M 4122 4306 
L 4122 3641 
Q 3803 3938 3442 4084 
Q 3081 4231 2675 4231 
Q 1875 4231 1450 3742 
Q 1025 3253 1025 2328 
Q 1025 1406 1450 917 
Q 1875 428 2675 428 
Q 3081 428 3442 575 
Q 3803 722 4122 1019 
L 4122 359 
Q 3791 134 3420 21 
Q 3050 -91 2638 -91 
Q 1578 -91 968 557 
Q 359 1206 359 2328 
Q 359 3453 968 4101 
Q 1578 4750 2638 4750 
Q 3056 4750 3426 4639 
Q 3797 4528 4122 4306 
z
" transform="scale(0.015625)"/>
       <path id="DejaVuSans-79" d="M 2059 -325 
Q 1816 -950 1584 -1140 
Q 1353 -1331 966 -1331 
L 506 -1331 
L 506 -850 
L 844 -850 
Q 1081 -850 1212 -737 
Q 1344 -625 1503 -206 
L 1606 56 
L 191 3500 
L 800 3500 
L 1894 763 
L 2988 3500 
L 3597 3500 
L 2059 -325 
z
" transform="scale(0.015625)"/>
       <path id="DejaVuSans-63" d="M 3122 3366 
L 3122 2828 
Q 2878 2963 2633 3030 
Q 2388 3097 2138 3097 
Q 1578 3097 1268 2742 
Q 959 2388 959 1747 
Q 959 1106 1268 751 
Q 1578 397 2138 397 
Q 2388 397 2633 464 
Q 2878 531 3122 666 
L 3122 134 
Q 2881 22 2623 -34 
Q 2366 -91 2075 -91 
Q 1284 -91 818 406 
Q 353 903 353 1747 
Q 353 2603 823 3093 
Q 1294 3584 2113 3584 
Q 2378 3584 2631 3529 
Q 2884 3475 3122 3366 
z
" transform="scale(0.015625)"/>
       <path id="DejaVuSans-6c" d="M 603 4863 
L 1178 4863 
L 1178 0 
L 603 0 
L 603 4863 
z
" transform="scale(0.015625)"/>
       <path id="DejaVuSans-65" d="M 3597 1894 
L 3597 1613 
L 953 1613 
Q 991 1019 1311 708 
Q 1631 397 2203 397 
Q 2534 397 2845 478 
Q 3156 559 3463 722 
L 3463 178 
Q 3153 47 2828 -22 
Q 2503 -91 2169 -91 
Q 1331 -91 842 396 
Q 353 884 353 1716 
Q 353 2575 817 3079 
Q 1281 3584 2069 3584 
Q 2775 3584 3186 3129 
Q 3597 2675 3597 1894 
z
M 3022 2063 
Q 3016 2534 2758 2815 
Q 2500 3097 2075 3097 
Q 1594 3097 1305 2825 
Q 1016 2553 972 2059 
L 3022 2063 
z
" transform="scale(0.015625)"/>
       <path id="DejaVuSans-73" d="M 2834 3397 
L 2834 2853 
Q 2591 2978 2328 3040 
Q 2066 3103 1784 3103 
Q 1356 3103 1142 2972 
Q 928 2841 928 2578 
Q 928 2378 1081 2264 
Q 1234 2150 1697 2047 
L 1894 2003 
Q 2506 1872 2764 1633 
Q 3022 1394 3022 966 
Q 3022 478 2636 193 
Q 2250 -91 1575 -91 
Q 1294 -91 989 -36 
Q 684 19 347 128 
L 347 722 
Q 666 556 975 473 
Q 1284 391 1588 391 
Q 1994 391 2212 530 
Q 2431 669 2431 922 
Q 2431 1156 2273 1281 
Q 2116 1406 1581 1522 
L 1381 1569 
Q 847 1681 609 1914 
Q 372 2147 372 2553 
Q 372 3047 722 3315 
Q 1072 3584 1716 3584 
Q 2034 3584 2315 3537 
Q 2597 3491 2834 3397 
z
" transform="scale(0.015625)"/>
      </defs>
      <use xlink:href="#DejaVuSans-43"/>
      <use xlink:href="#DejaVuSans-79" x="69.824219"/>
      <use xlink:href="#DejaVuSans-63" x="129.003906"/>
      <use xlink:href="#DejaVuSans-6c" x="183.984375"/>
      <use xlink:href="#DejaVuSans-65" x="211.767578"/>
      <use xlink:href="#DejaVuSans-73" x="273.291016"/>
     </g>
    </g>
   </g>
   <g id="matplotlib.axis_2">
    <g id="ytick_1">
     <g id="line2d_7">
      <defs>
       <path id="m7acabee835" d="M 0 0 
L -3.5 0 
" style="stroke: #000000; stroke-width: 0.8"/>
      </defs>
      <g>
       <use xlink:href="#m7acabee835" x="99" y="310.836145" style="stroke: #000000; stroke-width: 0.8"/>
      </g>
     </g>
     <g id="text_8">
      <!-- 641.0 -->
      <g transform="translate(51.920625 316.155051)scale(0.14 -0.14)">
       <defs>
        <path id="DejaVuSans-36" d="M 2113 2584 
Q 1688 2584 1439 2293 
Q 1191 2003 1191 1497 
Q 1191 994 1439 701 
Q 1688 409 2113 409 
Q 2538 409 2786 701 
Q 3034 994 3034 1497 
Q 3034 2003 2786 2293 
Q 2538 2584 2113 2584 
z
M 3366 4563 
L 3366 3988 
Q 3128 4100 2886 4159 
Q 2644 4219 2406 4219 
Q 1781 4219 1451 3797 
Q 1122 3375 1075 2522 
Q 1259 2794 1537 2939 
Q 1816 3084 2150 3084 
Q 2853 3084 3261 2657 
Q 3669 2231 3669 1497 
Q 3669 778 3244 343 
Q 2819 -91 2113 -91 
Q 1303 -91 875 529 
Q 447 1150 447 2328 
Q 447 3434 972 4092 
Q 1497 4750 2381 4750 
Q 2619 4750 2861 4703 
Q 3103 4656 3366 4563 
z
" transform="scale(0.015625)"/>
        <path id="DejaVuSans-34" d="M 2419 4116 
L 825 1625 
L 2419 1625 
L 2419 4116 
z
M 2253 4666 
L 3047 4666 
L 3047 1625 
L 3713 1625 
L 3713 1100 
L 3047 1100 
L 3047 0 
L 2419 0 
L 2419 1100 
L 313 1100 
L 313 1709 
L 2253 4666 
z
" transform="scale(0.015625)"/>
       </defs>
       <use xlink:href="#DejaVuSans-36"/>
       <use xlink:href="#DejaVuSans-34" x="63.623047"/>
       <use xlink:href="#DejaVuSans-31" x="127.246094"/>
       <use xlink:href="#DejaVuSans-2e" x="190.869141"/>
       <use xlink:href="#DejaVuSans-30" x="222.65625"/>
      </g>
     </g>
    </g>
    <g id="ytick_2">
     <g id="line2d_8">
      <g>
       <use xlink:href="#m7acabee835" x="99" y="276.334502" style="stroke: #000000; stroke-width: 0.8"/>
      </g>
     </g>
     <g id="text_9">
      <!-- 641.5 -->
      <g transform="translate(51.920625 281.653408)scale(0.14 -0.14)">
       <use xlink:href="#DejaVuSans-36"/>
       <use xlink:href="#DejaVuSans-34" x="63.623047"/>
       <use xlink:href="#DejaVuSans-31" x="127.246094"/>
       <use xlink:href="#DejaVuSans-2e" x="190.869141"/>
       <use xlink:href="#DejaVuSans-35" x="222.65625"/>
      </g>
     </g>
    </g>
    <g id="ytick_3">
     <g id="line2d_9">
      <g>
       <use xlink:href="#m7acabee835" x="99" y="241.832859" style="stroke: #000000; stroke-width: 0.8"/>
      </g>
     </g>
     <g id="text_10">
      <!-- 642.0 -->
      <g transform="translate(51.920625 247.151765)scale(0.14 -0.14)">
       <use xlink:href="#DejaVuSans-36"/>
       <use xlink:href="#DejaVuSans-34" x="63.623047"/>
       <use xlink:href="#DejaVuSans-32" x="127.246094"/>
       <use xlink:href="#DejaVuSans-2e" x="190.869141"/>
       <use xlink:href="#DejaVuSans-30" x="222.65625"/>
      </g>
     </g>
    </g>
    <g id="ytick_4">
     <g id="line2d_10">
      <g>
       <use xlink:href="#m7acabee835" x="99" y="207.331216" style="stroke: #000000; stroke-width: 0.8"/>
      </g>
     </g>
     <g id="text_11">
      <!-- 642.5 -->
      <g transform="translate(51.920625 212.650122)scale(0.14 -0.14)">
       <use xlink:href="#DejaVuSans-36"/>
       <use xlink:href="#DejaVuSans-34" x="63.623047"/>
       <use xlink:href="#DejaVuSans-32" x="127.246094"/>
       <use xlink:href="#DejaVuSans-2e" x="190.869141"/>
       <use xlink:href="#DejaVuSans-35" x="222.65625"/>
      </g>
     </g>
    </g>
    <g id="ytick_5">
     <g id="line2d_11">
      <g>
       <use xlink:href="#m7acabee835" x="99" y="172.829573" style="stroke: #000000; stroke-width: 0.8"/>
      </g>
     </g>
     <g id="text_12">
      <!-- 643.0 -->
      <g transform="translate(51.920625 178.148479)scale(0.14 -0.14)">
       <defs>
        <path id="DejaVuSans-33" d="M 2597 2516 
Q 3050 2419 3304 2112 
Q 3559 1806 3559 1356 
Q 3559 666 3084 287 
Q 2609 -91 1734 -91 
Q 1441 -91 1130 -33 
Q 819 25 488 141 
L 488 750 
Q 750 597 1062 519 
Q 1375 441 1716 441 
Q 2309 441 2620 675 
Q 2931 909 2931 1356 
Q 2931 1769 2642 2001 
Q 2353 2234 1838 2234 
L 1294 2234 
L 1294 2753 
L 1863 2753 
Q 2328 2753 2575 2939 
Q 2822 3125 2822 3475 
Q 2822 3834 2567 4026 
Q 2313 4219 1838 4219 
Q 1578 4219 1281 4162 
Q 984 4106 628 3988 
L 628 4550 
Q 988 4650 1302 4700 
Q 1616 4750 1894 4750 
Q 2613 4750 3031 4423 
Q 3450 4097 3450 3541 
Q 3450 3153 3228 2886 
Q 3006 2619 2597 2516 
z
" transform="scale(0.015625)"/>
       </defs>
       <use xlink:href="#DejaVuSans-36"/>
       <use xlink:href="#DejaVuSans-34" x="63.623047"/>
       <use xlink:href="#DejaVuSans-33" x="127.246094"/>
       <use xlink:href="#DejaVuSans-2e" x="190.869141"/>
       <use xlink:href="#DejaVuSans-30" x="222.65625"/>
      </g>
     </g>
    </g>
    <g id="ytick_6">
     <g id="line2d_12">
      <g>
       <use xlink:href="#m7acabee835" x="99" y="138.32793" style="stroke: #000000; stroke-width: 0.8"/>
      </g>
     </g>
     <g id="text_13">
      <!-- 643.5 -->
      <g transform="translate(51.920625 143.646836)scale(0.14 -0.14)">
       <use xlink:href="#DejaVuSans-36"/>
       <use xlink:href="#DejaVuSans-34" x="63.623047"/>
       <use xlink:href="#DejaVuSans-33" x="127.246094"/>
       <use xlink:href="#DejaVuSans-2e" x="190.869141"/>
       <use xlink:href="#DejaVuSans-35" x="222.65625"/>
      </g>
     </g>
    </g>
    <g id="ytick_7">
     <g id="line2d_13">
      <g>
       <use xlink:href="#m7acabee835" x="99" y="103.826287" style="stroke: #000000; stroke-width: 0.8"/>
      </g>
     </g>
     <g id="text_14">
      <!-- 644.0 -->
      <g transform="translate(51.920625 109.145193)scale(0.14 -0.14)">
       <use xlink:href="#DejaVuSans-36"/>
       <use xlink:href="#DejaVuSans-34" x="63.623047"/>
       <use xlink:href="#DejaVuSans-34" x="127.246094"/>
       <use xlink:href="#DejaVuSans-2e" x="190.869141"/>
       <use xlink:href="#DejaVuSans-30" x="222.65625"/>
      </g>
     </g>
    </g>
    <g id="ytick_8">
     <g id="line2d_14">
      <g>
       <use xlink:href="#m7acabee835" x="99" y="69.324644" style="stroke: #000000; stroke-width: 0.8"/>
      </g>
     </g>
     <g id="text_15">
      <!-- 644.5 -->
      <g transform="translate(51.920625 74.64355)scale(0.14 -0.14)">
       <use xlink:href="#DejaVuSans-36"/>
       <use xlink:href="#DejaVuSans-34" x="63.623047"/>
       <use xlink:href="#DejaVuSans-34" x="127.246094"/>
       <use xlink:href="#DejaVuSans-2e" x="190.869141"/>
       <use xlink:href="#DejaVuSans-35" x="222.65625"/>
      </g>
     </g>
    </g>
    <g id="text_16">
     <!-- sensor_2 (°R) -->
     <g transform="translate(43.676562 242.488125)rotate(-90)scale(0.18 -0.18)">
      <defs>
       <path id="DejaVuSans-6e" d="M 3513 2113 
L 3513 0 
L 2938 0 
L 2938 2094 
Q 2938 2591 2744 2837 
Q 2550 3084 2163 3084 
Q 1697 3084 1428 2787 
Q 1159 2491 1159 1978 
L 1159 0 
L 581 0 
L 581 3500 
L 1159 3500 
L 1159 2956 
Q 1366 3272 1645 3428 
Q 1925 3584 2291 3584 
Q 2894 3584 3203 3211 
Q 3513 2838 3513 2113 
z
" transform="scale(0.015625)"/>
       <path id="DejaVuSans-6f" d="M 1959 3097 
Q 1497 3097 1228 2736 
Q 959 2375 959 1747 
Q 959 1119 1226 758 
Q 1494 397 1959 397 
Q 2419 397 2687 759 
Q 2956 1122 2956 1747 
Q 2956 2369 2687 2733 
Q 2419 3097 1959 3097 
z
M 1959 3584 
Q 2709 3584 3137 3096 
Q 3566 2609 3566 1747 
Q 3566 888 3137 398 
Q 2709 -91 1959 -91 
Q 1206 -91 779 398 
Q 353 888 353 1747 
Q 353 2609 779 3096 
Q 1206 3584 1959 3584 
z
" transform="scale(0.015625)"/>
       <path id="DejaVuSans-72" d="M 2631 2963 
Q 2534 3019 2420 3045 
Q 2306 3072 2169 3072 
Q 1681 3072 1420 2755 
Q 1159 2438 1159 1844 
L 1159 0 
L 581 0 
L 581 3500 
L 1159 3500 
L 1159 2956 
Q 1341 3275 1631 3429 
Q 1922 3584 2338 3584 
Q 2397 3584 2469 3576 
Q 2541 3569 2628 3553 
L 2631 2963 
z
" transform="scale(0.015625)"/>
       <path id="DejaVuSans-5f" d="M 3263 -1063 
L 3263 -1509 
L -63 -1509 
L -63 -1063 
L 3263 -1063 
z
" transform="scale(0.015625)"/>
       <path id="DejaVuSans-20" transform="scale(0.015625)"/>
       <path id="DejaVuSans-28" d="M 1984 4856 
Q 1566 4138 1362 3434 
Q 1159 2731 1159 2009 
Q 1159 1288 1364 580 
Q 1569 -128 1984 -844 
L 1484 -844 
Q 1016 -109 783 600 
Q 550 1309 550 2009 
Q 550 2706 781 3412 
Q 1013 4119 1484 4856 
L 1984 4856 
z
" transform="scale(0.015625)"/>
       <path id="DejaVuSans-b0" d="M 1600 4347 
Q 1350 4347 1178 4173 
Q 1006 4000 1006 3750 
Q 1006 3503 1178 3333 
Q 1350 3163 1600 3163 
Q 1850 3163 2022 3333 
Q 2194 3503 2194 3750 
Q 2194 3997 2020 4172 
Q 1847 4347 1600 4347 
z
M 1600 4750 
Q 1800 4750 1984 4673 
Q 2169 4597 2303 4453 
Q 2447 4313 2519 4134 
Q 2591 3956 2591 3750 
Q 2591 3338 2302 3052 
Q 2013 2766 1594 2766 
Q 1172 2766 890 3047 
Q 609 3328 609 3750 
Q 609 4169 896 4459 
Q 1184 4750 1600 4750 
z
" transform="scale(0.015625)"/>
       <path id="DejaVuSans-52" d="M 2841 2188 
Q 3044 2119 3236 1894 
Q 3428 1669 3622 1275 
L 4263 0 
L 3584 0 
L 2988 1197 
Q 2756 1666 2539 1819 
Q 2322 1972 1947 1972 
L 1259 1972 
L 1259 0 
L 628 0 
L 628 4666 
L 2053 4666 
Q 2853 4666 3247 4331 
Q 3641 3997 3641 3322 
Q 3641 2881 3436 2590 
Q 3231 2300 2841 2188 
z
M 1259 4147 
L 1259 2491 
L 2053 2491 
Q 2509 2491 2742 2702 
Q 2975 2913 2975 3322 
Q 2975 3731 2742 3939 
Q 2509 4147 2053 4147 
L 1259 4147 
z
" transform="scale(0.015625)"/>
       <path id="DejaVuSans-29" d="M 513 4856 
L 1013 4856 
Q 1481 4119 1714 3412 
Q 1947 2706 1947 2009 
Q 1947 1309 1714 600 
Q 1481 -109 1013 -844 
L 513 -844 
Q 928 -128 1133 580 
Q 1338 1288 1338 2009 
Q 1338 2731 1133 3434 
Q 928 4138 513 4856 
z
" transform="scale(0.015625)"/>
      </defs>
      <use xlink:href="#DejaVuSans-73"/>
      <use xlink:href="#DejaVuSans-65" x="52.099609"/>
      <use xlink:href="#DejaVuSans-6e" x="113.623047"/>
      <use xlink:href="#DejaVuSans-73" x="177.001953"/>
      <use xlink:href="#DejaVuSans-6f" x="229.101562"/>
      <use xlink:href="#DejaVuSans-72" x="290.283203"/>
      <use xlink:href="#DejaVuSans-5f" x="331.396484"/>
      <use xlink:href="#DejaVuSans-32" x="381.396484"/>
      <use xlink:href="#DejaVuSans-20" x="445.019531"/>
      <use xlink:href="#DejaVuSans-28" x="476.806641"/>
      <use xlink:href="#DejaVuSans-b0" x="515.820312"/>
      <use xlink:href="#DejaVuSans-52" x="565.820312"/>
      <use xlink:href="#DejaVuSans-29" x="635.302734"/>
     </g>
    </g>
   </g>
   <g id="line2d_15">
    <path d="M 104.456 254.25345 
L 105.0016 231.482366 
L 105.5472 217.681709 
L 106.0928 217.681709 
L 106.6384 216.301643 
L 107.184 234.93253 
L 107.7296 208.711281 
L 108.2752 203.191019 
L 109.3664 261.843812 
L 109.912 222.511939 
L 110.4576 237.692662 
L 111.0032 167.999343 
L 111.5488 217.681709 
L 112.0944 212.161446 
L 112.64 232.862432 
L 113.1856 201.810953 
L 113.7312 199.050821 
L 114.2768 256.323549 
L 114.8224 170.069441 
L 115.368 216.301643 
L 115.9136 188.700329 
L 116.4592 232.172399 
L 117.0048 215.61161 
L 117.5504 188.700329 
L 118.096 230.792333 
L 118.6416 211.471413 
L 119.1872 217.681709 
L 119.7328 248.043154 
L 120.2784 228.032202 
L 120.824 240.452793 
L 121.3696 219.061774 
L 121.9152 192.840526 
L 122.4608 204.571084 
L 123.0064 211.471413 
L 123.552 204.571084 
L 124.0976 242.522892 
L 124.6432 246.663089 
L 125.1888 241.142826 
L 125.7344 225.27207 
L 126.28 214.231544 
L 126.8256 233.552464 
L 127.3712 225.27207 
L 127.9168 246.663089 
L 128.4624 205.261117 
L 129.008 212.161446 
L 129.5536 227.342169 
L 130.0992 249.42322 
L 130.6448 225.962103 
L 131.1904 188.700329 
L 131.736 185.940197 
L 132.2816 189.390361 
L 132.8272 199.740854 
L 133.3728 212.851479 
L 133.9184 213.541512 
L 134.464 208.021249 
L 135.0096 232.862432 
L 135.5552 248.733187 
L 136.1008 219.061774 
L 136.6464 218.371742 
L 137.192 234.93253 
L 137.7376 230.1023 
L 138.2832 200.430887 
L 138.8288 225.962103 
L 139.3744 222.511939 
L 139.92 207.331216 
L 140.4656 219.061774 
L 141.0112 206.641183 
L 141.5568 211.471413 
L 142.1024 226.652136 
L 142.648 227.342169 
L 143.1936 213.541512 
L 143.7392 221.821906 
L 144.2848 175.589704 
L 144.8304 244.59299 
L 145.376 227.342169 
L 145.9216 203.881051 
L 146.4672 242.522892 
L 147.0128 233.552464 
L 147.5584 245.973056 
L 148.104 191.46046 
L 148.6496 239.072727 
L 149.1952 196.29069 
L 149.7408 197.670756 
L 150.2864 222.511939 
L 150.832 252.873384 
L 151.3776 219.061774 
L 151.9232 244.59299 
L 152.4688 225.27207 
L 153.0144 195.600657 
L 153.56 243.212924 
L 154.1056 180.419934 
L 154.6512 183.180066 
L 155.1968 210.78138 
L 155.7424 182.490033 
L 156.288 228.722234 
L 156.8336 237.002629 
L 157.3792 241.832859 
L 157.9248 210.091347 
L 158.4704 226.652136 
L 159.016 190.080394 
L 159.5616 183.180066 
L 160.1072 227.342169 
L 160.6528 221.821906 
L 161.1984 241.142826 
L 161.744 194.910624 
L 162.2896 205.261117 
L 162.8352 139.017963 
L 163.3808 208.021249 
L 163.9264 203.881051 
L 164.472 195.600657 
L 165.0176 196.29069 
L 165.5632 194.910624 
L 166.1088 220.44184 
L 166.6544 196.29069 
L 167.2 197.670756 
L 167.7456 215.61161 
L 168.2912 218.371742 
L 168.8368 195.600657 
L 169.3824 185.940197 
L 169.928 198.360789 
L 170.4736 152.128587 
L 171.0192 145.918291 
L 171.5648 208.711281 
L 172.1104 175.589704 
L 172.656 208.021249 
L 173.2016 173.519606 
L 173.7472 209.401314 
L 174.2928 213.541512 
L 175.384 172.13954 
L 175.9296 159.718949 
L 176.4752 210.78138 
L 177.0208 183.180066 
L 177.5664 210.78138 
L 178.112 183.870099 
L 178.6576 212.161446 
L 179.7488 165.239211 
L 180.2944 169.379409 
L 180.84 214.921577 
L 181.3856 206.641183 
L 181.9312 188.700329 
L 182.4768 166.619277 
L 183.0224 176.279737 
L 183.568 192.150493 
L 184.1136 224.582037 
L 184.6592 171.449507 
L 185.2048 179.729901 
L 185.7504 168.689376 
L 186.296 185.250164 
L 186.8416 195.600657 
L 187.3872 173.519606 
L 187.9328 185.940197 
L 188.4784 184.560131 
L 189.024 170.069441 
L 189.5696 228.032202 
L 190.1152 181.109967 
L 190.6608 180.419934 
L 191.2064 141.778094 
L 191.752 172.829573 
L 192.2976 162.47908 
L 192.8432 183.180066 
L 193.3888 161.099014 
L 193.9344 189.390361 
L 194.48 149.368456 
L 195.5712 194.910624 
L 196.1168 159.028916 
L 196.6624 178.349836 
L 197.208 154.888719 
L 197.7536 150.058488 
L 198.8448 197.670756 
L 199.3904 130.737568 
L 199.936 182.490033 
L 200.4816 118.316977 
L 201.0272 146.608324 
L 201.5728 182.490033 
L 202.1184 132.807667 
L 202.664 142.468127 
L 203.2096 89.335597 
L 203.7552 156.268784 
L 204.3008 98.996057 
L 205.392 137.637897 
L 205.9376 150.748521 
L 207.0288 91.405696 
L 207.5744 128.66747 
L 208.12 149.368456 
L 208.6656 135.567798 
L 209.2112 249.42322 
L 209.7568 254.25345 
L 210.3024 272.884337 
L 210.848 263.91391 
L 211.3936 260.463746 
L 211.9392 290.135159 
L 212.4848 239.76276 
L 213.0304 203.881051 
L 213.576 243.212924 
L 214.1216 242.522892 
L 214.6672 223.892004 
L 215.2128 266.674042 
L 215.7584 257.013582 
L 216.304 265.293976 
L 216.8496 227.342169 
L 217.3952 254.943483 
L 217.9408 212.161446 
L 218.4864 245.283023 
L 219.032 259.08368 
L 219.5776 218.371742 
L 220.1232 238.382694 
L 220.6688 230.792333 
L 221.2144 216.301643 
L 221.76 242.522892 
L 222.3056 254.943483 
L 222.8512 250.803286 
L 223.3968 233.552464 
L 223.9424 239.072727 
L 224.488 236.312596 
L 225.0336 257.013582 
L 225.5792 243.902957 
L 226.1248 270.814239 
L 226.6704 256.323549 
L 227.216 233.552464 
L 227.7616 285.304929 
L 228.3072 292.205257 
L 228.8528 234.93253 
L 229.3984 226.652136 
L 229.944 241.832859 
L 230.4896 240.452793 
L 231.0352 213.541512 
L 231.5808 223.201972 
L 232.1264 240.452793 
L 232.672 241.142826 
L 233.2176 238.382694 
L 233.7632 231.482366 
L 234.3088 214.231544 
L 234.8544 235.622563 
L 235.4 183.180066 
L 235.9456 240.452793 
L 236.4912 239.76276 
L 237.0368 274.954436 
L 237.5824 241.832859 
L 238.128 270.814239 
L 238.6736 219.061774 
L 239.2192 252.873384 
L 239.7648 207.331216 
L 240.3104 221.131873 
L 240.856 208.711281 
L 241.4016 235.622563 
L 241.9472 213.541512 
L 242.4928 254.943483 
L 243.0384 248.043154 
L 243.584 265.293976 
L 244.1296 262.533844 
L 244.6752 223.892004 
L 245.2208 230.1023 
L 245.7664 207.331216 
L 246.312 191.46046 
L 246.8576 258.393647 
L 247.4032 214.921577 
L 247.9488 208.711281 
L 248.4944 260.463746 
L 249.04 214.921577 
L 249.5856 266.674042 
L 250.1312 241.142826 
L 250.6768 243.902957 
L 251.2224 211.471413 
L 251.768 268.054107 
L 252.3136 285.304929 
L 252.8592 261.153779 
L 253.4048 251.493319 
L 253.9504 260.463746 
L 254.496 213.541512 
L 255.0416 260.463746 
L 255.5872 252.183352 
L 256.1328 216.991676 
L 256.6784 225.962103 
L 257.224 245.283023 
L 257.7696 237.692662 
L 258.3152 235.622563 
L 258.8608 216.991676 
L 259.4064 227.342169 
L 259.952 234.93253 
L 260.4976 203.191019 
L 261.0432 212.851479 
L 262.1344 260.463746 
L 262.68 239.072727 
L 263.2256 239.072727 
L 263.7712 244.59299 
L 264.3168 211.471413 
L 264.8624 238.382694 
L 265.408 213.541512 
L 265.9536 245.973056 
L 266.4992 250.803286 
L 267.0448 205.95115 
L 267.5904 225.27207 
L 268.136 233.552464 
L 268.6816 221.821906 
L 269.2272 225.27207 
L 269.7728 208.021249 
L 270.3184 245.283023 
L 270.864 232.862432 
L 271.4096 230.792333 
L 271.9552 215.61161 
L 272.5008 243.902957 
L 273.0464 245.283023 
L 273.592 195.600657 
L 274.1376 241.142826 
L 274.6832 239.072727 
L 275.2288 236.312596 
L 275.7744 234.242497 
L 276.32 216.301643 
L 276.8656 192.840526 
L 277.4112 237.002629 
L 277.9568 223.892004 
L 278.5024 273.57437 
L 279.048 265.293976 
L 279.5936 237.692662 
L 280.1392 244.59299 
L 280.6848 241.142826 
L 281.2304 183.870099 
L 281.776 189.390361 
L 282.3216 240.452793 
L 282.8672 237.692662 
L 283.4128 210.091347 
L 283.9584 218.371742 
L 284.504 198.360789 
L 285.0496 221.821906 
L 285.5952 237.002629 
L 286.1408 248.043154 
L 286.6864 220.44184 
L 287.232 240.452793 
L 287.7776 241.142826 
L 288.3232 205.95115 
L 288.8688 223.201972 
L 289.4144 196.980723 
L 289.96 239.76276 
L 290.5056 199.050821 
L 291.0512 204.571084 
L 291.5968 215.61161 
L 292.1424 244.59299 
L 292.688 218.371742 
L 293.2336 230.1023 
L 293.7792 231.482366 
L 294.3248 239.072727 
L 294.8704 242.522892 
L 295.416 254.943483 
L 295.9616 205.261117 
L 297.0528 261.843812 
L 297.5984 181.109967 
L 298.144 185.250164 
L 298.6896 230.1023 
L 299.2352 256.323549 
L 299.7808 224.582037 
L 300.3264 203.881051 
L 300.872 223.892004 
L 301.4176 232.172399 
L 301.9632 227.342169 
L 302.5088 237.002629 
L 303.0544 196.29069 
L 303.6 218.371742 
L 304.1456 210.091347 
L 304.6912 219.751807 
L 305.2368 217.681709 
L 305.7824 212.161446 
L 306.328 219.061774 
L 306.8736 207.331216 
L 307.4192 241.142826 
L 307.9648 214.921577 
L 308.5104 200.430887 
L 309.056 212.161446 
L 309.6016 196.29069 
L 310.1472 186.63023 
L 310.6928 194.220591 
L 311.2384 197.670756 
L 311.784 185.940197 
L 312.3296 208.711281 
L 312.8752 225.962103 
L 313.9664 232.862432 
L 314.512 165.929244 
L 315.0576 156.268784 
L 315.6032 197.670756 
L 316.1488 203.881051 
L 316.6944 158.338883 
L 317.24 211.471413 
L 317.7856 190.770427 
L 318.3312 220.44184 
L 318.8768 203.191019 
L 319.4224 245.283023 
L 319.968 210.091347 
L 320.5136 196.980723 
L 321.0592 206.641183 
L 321.6048 191.46046 
L 322.1504 200.430887 
L 322.696 223.201972 
L 323.2416 181.109967 
L 323.7872 186.63023 
L 324.3328 204.571084 
L 324.8784 214.921577 
L 325.424 214.921577 
L 325.9696 174.899671 
L 326.5152 210.091347 
L 327.0608 152.128587 
L 327.6064 179.039869 
L 328.152 181.109967 
L 328.6976 181.8 
L 329.2432 166.619277 
L 329.7888 161.789047 
L 330.3344 168.689376 
L 331.4256 194.910624 
L 331.9712 156.958817 
L 332.5168 186.63023 
L 333.0624 195.600657 
L 333.608 219.751807 
L 334.6992 173.519606 
L 335.2448 174.209639 
L 335.7904 175.589704 
L 336.336 139.017963 
L 336.8816 198.360789 
L 337.4272 172.13954 
L 337.9728 163.169113 
L 338.5184 163.859146 
L 339.064 191.46046 
L 339.6096 199.740854 
L 340.7008 119.697043 
L 341.2464 170.069441 
L 342.3376 193.530559 
L 342.8832 183.180066 
L 343.4288 181.109967 
L 343.9744 168.689376 
L 344.52 118.316977 
L 345.6112 209.401314 
L 346.1568 184.560131 
L 346.7024 172.13954 
L 347.248 151.438554 
L 347.7936 139.707996 
L 348.3392 178.349836 
L 348.8848 168.689376 
L 349.976 188.010296 
L 350.5216 176.96977 
L 351.0672 125.217306 
L 351.6128 169.379409 
L 352.1584 161.789047 
L 352.704 140.398028 
L 353.2496 170.759474 
L 353.7952 163.169113 
L 354.3408 175.589704 
L 354.8864 165.929244 
L 355.9776 164.549179 
L 356.5232 112.796714 
L 357.0688 154.198686 
L 357.6144 123.83724 
L 358.16 160.408981 
L 358.7056 126.597371 
L 359.2512 116.246878 
L 359.7968 110.036583 
L 360.3424 142.468127 
L 360.888 128.66747 
L 361.4336 129.357503 
L 361.9792 131.427601 
L 362.5248 107.966484 
L 363.0704 119.00701 
L 363.616 110.036583 
L 364.7072 142.468127 
L 365.2528 114.17678 
L 365.7984 239.072727 
L 366.344 196.29069 
L 366.8896 237.002629 
L 367.4352 207.331216 
L 367.9808 243.902957 
L 368.5264 196.980723 
L 369.072 199.050821 
L 369.6176 225.962103 
L 370.1632 200.430887 
L 370.7088 192.150493 
L 371.2544 245.973056 
L 371.8 199.740854 
L 372.3456 198.360789 
L 372.8912 230.792333 
L 373.4368 253.563417 
L 373.9824 196.980723 
L 374.528 188.010296 
L 375.0736 223.892004 
L 375.6192 238.382694 
L 376.1648 224.582037 
L 376.7104 229.412267 
L 377.256 218.371742 
L 377.8016 237.002629 
L 378.3472 225.27207 
L 378.8928 225.27207 
L 379.4384 268.74414 
L 379.984 216.991676 
L 380.5296 277.714567 
L 381.0752 241.142826 
L 381.6208 227.342169 
L 382.1664 219.061774 
L 382.712 203.881051 
L 383.2576 254.25345 
L 383.8032 184.560131 
L 384.3488 236.312596 
L 384.8944 237.692662 
L 385.44 263.91391 
L 385.9856 261.153779 
L 386.5312 245.973056 
L 387.0768 243.902957 
L 387.6224 187.320263 
L 388.168 199.740854 
L 388.7136 201.810953 
L 389.2592 227.342169 
L 389.8048 231.482366 
L 390.3504 212.851479 
L 390.896 223.892004 
L 391.4416 241.142826 
L 391.9872 230.792333 
L 392.5328 206.641183 
L 393.624 221.821906 
L 394.1696 240.452793 
L 394.7152 239.76276 
L 395.8064 191.46046 
L 396.352 203.191019 
L 396.8976 205.95115 
L 397.4432 220.44184 
L 397.9888 255.633516 
L 398.5344 207.331216 
L 399.08 229.412267 
L 399.6256 234.93253 
L 400.1712 205.261117 
L 400.7168 263.223877 
L 401.2624 224.582037 
L 401.808 241.832859 
L 402.3536 176.96977 
L 402.8992 238.382694 
L 403.4448 204.571084 
L 403.9904 179.729901 
L 404.536 224.582037 
L 405.0816 212.851479 
L 405.6272 190.080394 
L 406.1728 224.582037 
L 406.7184 205.95115 
L 407.264 174.209639 
L 407.8096 212.161446 
L 408.3552 220.44184 
L 408.9008 259.773713 
L 409.4464 203.881051 
L 409.992 225.27207 
L 410.5376 223.201972 
L 411.0832 229.412267 
L 411.6288 245.283023 
L 412.1744 194.220591 
L 412.72 219.751807 
L 413.2656 223.201972 
L 413.8112 219.061774 
L 414.3568 216.991676 
L 414.9024 242.522892 
L 415.448 221.821906 
L 415.9936 234.93253 
L 416.5392 201.810953 
L 417.0848 216.301643 
L 417.6304 180.419934 
L 418.176 176.96977 
L 418.7216 214.231544 
L 419.2672 195.600657 
L 419.8128 221.821906 
L 420.3584 225.27207 
L 420.904 198.360789 
L 421.4496 222.511939 
L 421.9952 210.091347 
L 422.5408 252.183352 
L 423.0864 206.641183 
L 423.632 216.991676 
L 424.1776 174.209639 
L 424.7232 208.711281 
L 425.2688 178.349836 
L 425.8144 224.582037 
L 426.36 196.980723 
L 426.9056 207.331216 
L 427.4512 210.091347 
L 427.9968 226.652136 
L 428.5424 199.050821 
L 429.088 189.390361 
L 429.6336 223.892004 
L 430.1792 241.832859 
L 430.7248 200.430887 
L 431.2704 223.201972 
L 431.816 192.150493 
L 432.3616 208.021249 
L 432.9072 241.832859 
L 433.4528 185.250164 
L 433.9984 189.390361 
L 434.544 195.600657 
L 435.0896 226.652136 
L 435.6352 165.929244 
L 436.1808 202.500986 
L 436.7264 207.331216 
L 437.272 217.681709 
L 437.8176 199.050821 
L 438.3632 210.78138 
L 439.4544 200.430887 
L 440 190.080394 
L 440.5456 221.131873 
L 441.0912 167.30931 
L 441.6368 181.8 
L 442.1824 167.30931 
L 442.728 170.759474 
L 443.2736 208.711281 
L 443.8192 208.711281 
L 444.3648 196.980723 
L 444.9104 123.83724 
L 445.456 167.999343 
L 446.0016 194.220591 
L 446.5472 154.888719 
L 447.0928 167.30931 
L 447.6384 170.069441 
L 448.184 149.368456 
L 448.7296 180.419934 
L 449.2752 162.47908 
L 449.8208 184.560131 
L 450.3664 136.947864 
L 450.912 183.870099 
L 451.4576 159.718949 
L 452.0032 192.840526 
L 452.5488 208.711281 
L 453.0944 131.427601 
L 453.64 165.239211 
L 454.1856 172.829573 
L 454.7312 166.619277 
L 455.2768 175.589704 
L 455.8224 179.729901 
L 456.368 146.608324 
L 457.4592 134.877766 
L 458.0048 148.678423 
L 458.5504 147.98839 
L 459.096 130.047536 
L 459.6416 128.66747 
L 460.1872 141.088061 
L 460.7328 162.47908 
L 461.2784 108.656517 
L 461.824 125.907338 
L 462.3696 127.287404 
L 462.9152 137.637897 
L 463.4608 200.430887 
L 464.0064 210.78138 
L 464.552 230.792333 
L 465.0976 191.46046 
L 465.6432 234.242497 
L 466.1888 210.091347 
L 466.7344 223.892004 
L 467.28 243.902957 
L 467.8256 201.12092 
L 468.3712 188.010296 
L 468.9168 227.342169 
L 469.4624 198.360789 
L 470.008 225.27207 
L 470.5536 199.050821 
L 471.0992 209.401314 
L 471.6448 230.1023 
L 472.1904 237.692662 
L 472.736 216.991676 
L 473.2816 171.449507 
L 473.8272 205.261117 
L 474.3728 208.021249 
L 474.9184 194.910624 
L 475.464 213.541512 
L 476.0096 206.641183 
L 476.5552 238.382694 
L 477.1008 217.681709 
L 477.6464 236.312596 
L 478.192 201.12092 
L 478.7376 218.371742 
L 479.2832 193.530559 
L 480.3744 234.93253 
L 480.92 187.320263 
L 481.4656 221.821906 
L 482.0112 212.851479 
L 482.5568 236.312596 
L 483.1024 199.050821 
L 483.648 194.220591 
L 484.1936 232.172399 
L 484.7392 188.700329 
L 485.2848 211.471413 
L 485.8304 199.050821 
L 486.376 233.552464 
L 486.9216 254.943483 
L 487.4672 201.810953 
L 488.0128 173.519606 
L 488.5584 231.482366 
L 489.104 219.061774 
L 489.6496 185.250164 
L 490.1952 238.382694 
L 490.7408 221.131873 
L 491.2864 185.250164 
L 491.832 213.541512 
L 492.3776 204.571084 
L 492.9232 240.452793 
L 493.4688 186.63023 
L 494.0144 221.131873 
L 494.56 196.29069 
L 495.1056 219.751807 
L 495.6512 220.44184 
L 496.1968 203.191019 
L 496.7424 194.220591 
L 497.288 210.78138 
L 497.8336 194.910624 
L 498.9248 179.729901 
L 499.4704 227.342169 
L 500.016 211.471413 
L 500.5616 190.770427 
L 501.1072 212.851479 
L 501.6528 198.360789 
L 502.1984 194.220591 
L 502.744 217.681709 
L 503.2896 200.430887 
L 503.8352 212.851479 
L 504.3808 251.493319 
L 504.9264 188.700329 
L 505.472 196.29069 
L 506.0176 232.172399 
L 506.5632 174.209639 
L 507.1088 223.892004 
L 507.6544 196.29069 
L 508.2 232.862432 
L 508.7456 179.039869 
L 509.2912 221.821906 
L 509.8368 227.342169 
L 510.3824 193.530559 
L 510.928 194.910624 
L 511.4736 243.902957 
L 512.0192 150.748521 
L 512.5648 187.320263 
L 513.1104 213.541512 
L 513.656 225.27207 
L 514.2016 207.331216 
L 514.7472 208.711281 
L 515.2928 229.412267 
L 515.8384 176.279737 
L 516.384 168.689376 
L 516.9296 187.320263 
L 517.4752 195.600657 
L 518.0208 221.821906 
L 518.5664 207.331216 
L 519.112 184.560131 
L 519.6576 223.201972 
L 520.2032 208.711281 
L 520.7488 225.27207 
L 521.2944 203.881051 
L 521.84 232.862432 
L 522.3856 180.419934 
L 522.9312 209.401314 
L 523.4768 230.792333 
L 524.0224 231.482366 
L 524.568 213.541512 
L 525.1136 207.331216 
L 525.6592 165.239211 
L 526.2048 202.500986 
L 526.7504 174.899671 
L 527.296 210.78138 
L 527.8416 185.940197 
L 528.3872 232.862432 
L 529.4784 164.549179 
L 530.024 203.191019 
L 530.5696 197.670756 
L 531.1152 201.12092 
L 531.6608 203.191019 
L 532.2064 250.803286 
L 532.752 188.700329 
L 533.2976 221.131873 
L 533.8432 222.511939 
L 534.3888 185.940197 
L 534.9344 213.541512 
L 535.48 176.279737 
L 536.0256 185.250164 
L 536.5712 186.63023 
L 537.1168 181.109967 
L 537.6624 217.681709 
L 538.208 199.050821 
L 538.7536 206.641183 
L 539.2992 212.161446 
L 539.8448 188.010296 
L 540.3904 231.482366 
L 540.936 190.770427 
L 541.4816 200.430887 
L 542.0272 167.999343 
L 542.5728 192.150493 
L 543.1184 185.250164 
L 543.664 166.619277 
L 544.2096 201.810953 
L 544.7552 210.091347 
L 545.3008 155.578751 
L 545.8464 194.910624 
L 546.392 171.449507 
L 546.9376 181.8 
L 547.4832 169.379409 
L 548.0288 204.571084 
L 548.5744 186.63023 
L 549.12 172.829573 
L 549.6656 185.250164 
L 550.2112 156.268784 
L 550.7568 171.449507 
L 551.3024 179.039869 
L 551.848 150.748521 
L 552.3936 159.028916 
L 552.9392 146.608324 
L 553.4848 184.560131 
L 554.0304 174.899671 
L 554.576 182.490033 
L 555.6672 131.427601 
L 556.2128 125.217306 
L 557.304 181.8 
L 557.8496 166.619277 
L 558.3952 161.099014 
L 558.9408 147.98839 
L 559.4864 162.47908 
L 560.5776 131.427601 
L 561.1232 132.807667 
L 561.6688 149.368456 
L 562.2144 143.848193 
L 562.76 69.324644 
L 563.3056 142.468127 
L 563.8512 154.198686 
L 564.3968 141.778094 
L 564.9424 125.217306 
L 565.488 139.707996 
L 566.0336 67.254545 
L 566.5792 257.703614 
L 567.1248 212.851479 
L 567.6704 237.002629 
L 568.216 236.312596 
L 568.7616 239.76276 
L 569.3072 219.751807 
L 569.8528 188.010296 
L 570.3984 208.021249 
L 570.944 263.223877 
L 571.4896 229.412267 
L 572.0352 248.733187 
L 572.5808 243.902957 
L 573.1264 248.733187 
L 573.672 246.663089 
L 574.2176 250.113253 
L 574.7632 272.194304 
L 575.3088 241.832859 
L 575.8544 238.382694 
L 576.4 216.991676 
L 576.9456 223.201972 
L 577.4912 238.382694 
L 578.0368 215.61161 
L 578.5824 271.504272 
L 579.128 232.862432 
L 579.6736 238.382694 
L 580.2192 268.74414 
L 580.7648 226.652136 
L 581.3104 243.902957 
L 581.856 208.711281 
L 582.4016 196.29069 
L 582.9472 237.692662 
L 583.4928 213.541512 
L 584.0384 258.393647 
L 584.584 263.91391 
L 585.1296 230.792333 
L 585.6752 290.135159 
L 586.2208 239.072727 
L 586.7664 215.61161 
L 587.312 254.25345 
L 587.8576 189.390361 
L 588.4032 185.250164 
L 588.9488 247.353122 
L 589.4944 257.013582 
L 590.04 257.703614 
L 590.5856 219.751807 
L 591.1312 225.27207 
L 591.6768 245.283023 
L 592.2224 284.614896 
L 592.768 234.242497 
L 593.3136 228.032202 
L 593.8592 219.751807 
L 594.4048 251.493319 
L 594.9504 228.032202 
L 595.496 232.172399 
L 596.0416 243.212924 
L 596.5872 233.552464 
L 597.1328 245.283023 
L 597.6784 199.740854 
L 598.224 238.382694 
L 598.7696 241.832859 
L 599.3152 216.991676 
L 599.8608 245.973056 
L 600.952 214.231544 
L 601.4976 244.59299 
L 602.0432 230.792333 
L 602.5888 264.603943 
L 603.1344 241.832859 
L 603.68 248.733187 
L 604.2256 251.493319 
L 604.7712 217.681709 
L 605.3168 258.393647 
L 605.8624 222.511939 
L 606.408 238.382694 
L 606.9536 218.371742 
L 607.4992 221.821906 
L 608.0448 173.519606 
L 608.5904 231.482366 
L 609.136 230.792333 
L 609.6816 229.412267 
L 610.2272 215.61161 
L 610.7728 207.331216 
L 611.3184 228.722234 
L 611.864 201.12092 
L 612.4096 212.851479 
L 612.9552 227.342169 
L 613.5008 214.921577 
L 614.0464 215.61161 
L 614.592 204.571084 
L 615.1376 259.08368 
L 615.6832 214.231544 
L 616.2288 244.59299 
L 616.7744 232.172399 
L 617.32 211.471413 
L 617.8656 223.201972 
L 618.4112 199.050821 
L 618.9568 245.973056 
L 619.5024 268.054107 
L 620.048 230.1023 
L 620.5936 247.353122 
L 621.1392 193.530559 
L 621.6848 198.360789 
L 622.2304 283.924863 
L 622.776 232.862432 
L 623.3216 205.95115 
L 623.8672 212.851479 
L 624.4128 233.552464 
L 624.9584 199.740854 
L 625.504 239.76276 
L 626.0496 271.504272 
L 626.5952 233.552464 
L 627.1408 229.412267 
L 627.6864 209.401314 
L 628.232 233.552464 
L 628.7776 188.700329 
L 629.3232 273.57437 
L 629.8688 202.500986 
L 630.4144 239.072727 
L 630.96 224.582037 
L 631.5056 244.59299 
L 632.0512 202.500986 
L 632.5968 257.013582 
L 633.1424 265.984009 
L 633.688 198.360789 
L 634.2336 260.463746 
L 634.7792 251.493319 
L 635.3248 212.161446 
L 635.8704 217.681709 
L 636.9616 167.999343 
L 637.5072 227.342169 
L 638.0528 212.161446 
L 638.5984 222.511939 
L 639.144 288.755093 
L 639.6896 243.212924 
L 640.2352 274.954436 
L 640.7808 225.27207 
L 641.3264 264.603943 
L 641.872 219.061774 
L 642.4176 184.560131 
L 642.9632 259.773713 
L 643.5088 216.991676 
L 644.0544 214.231544 
L 645.1456 220.44184 
L 645.6912 188.700329 
L 646.2368 241.142826 
L 646.7824 225.27207 
L 647.328 205.261117 
L 647.8736 251.493319 
L 648.4192 239.76276 
L 648.9648 250.803286 
L 649.5104 199.050821 
L 650.056 225.27207 
L 650.6016 219.751807 
L 651.1472 225.27207 
L 651.6928 232.862432 
L 652.2384 250.113253 
L 652.784 212.851479 
L 653.3296 222.511939 
L 653.8752 239.072727 
L 654.4208 237.002629 
L 654.9664 198.360789 
L 655.512 203.191019 
L 656.0576 205.261117 
L 656.6032 193.530559 
L 657.1488 204.571084 
L 657.6944 226.652136 
L 658.24 199.740854 
L 658.7856 186.63023 
L 659.8768 238.382694 
L 660.4224 199.740854 
L 660.968 222.511939 
L 661.5136 237.002629 
L 662.0592 224.582037 
L 662.6048 219.751807 
L 663.1504 228.722234 
L 663.696 196.29069 
L 664.2416 177.659803 
L 664.7872 232.862432 
L 665.3328 243.902957 
L 665.8784 217.681709 
L 666.424 203.191019 
L 666.9696 208.021249 
L 667.5152 252.873384 
L 668.0608 173.519606 
L 668.6064 179.039869 
L 669.152 160.408981 
L 669.6976 245.283023 
L 670.2432 214.231544 
L 670.7888 168.689376 
L 671.3344 203.881051 
L 672.4256 214.231544 
L 672.9712 216.991676 
L 673.5168 212.161446 
L 674.0624 190.080394 
L 674.608 188.700329 
L 675.1536 210.78138 
L 675.6992 223.892004 
L 676.2448 198.360789 
L 676.7904 157.64885 
L 677.336 195.600657 
L 677.8816 201.810953 
L 678.4272 200.430887 
L 678.9728 201.12092 
L 679.5184 152.81862 
L 680.064 190.080394 
L 680.6096 155.578751 
L 681.1552 185.940197 
L 681.7008 141.088061 
L 682.2464 199.740854 
L 682.792 213.541512 
L 683.3376 155.578751 
L 683.8832 219.061774 
L 684.4288 194.220591 
L 684.9744 163.169113 
L 685.52 183.180066 
L 686.0656 198.360789 
L 686.6112 183.870099 
L 687.7024 219.061774 
L 688.248 176.96977 
L 688.7936 178.349836 
L 689.3392 192.840526 
L 690.4304 191.46046 
L 690.976 147.98839 
L 691.5216 145.228258 
L 692.0672 191.46046 
L 692.6128 192.150493 
L 693.1584 124.527273 
L 693.704 218.371742 
L 694.2496 161.099014 
L 694.7952 155.578751 
L 695.3408 125.907338 
L 695.8864 163.169113 
L 696.432 169.379409 
L 696.9776 144.538226 
L 697.5232 173.519606 
L 698.0688 167.999343 
L 698.6144 155.578751 
L 699.16 176.279737 
L 699.7056 163.859146 
L 700.2512 139.017963 
L 700.7968 145.228258 
L 701.3424 141.778094 
L 701.888 134.187733 
L 702.4336 163.169113 
L 702.9792 132.117634 
L 703.5248 123.83724 
L 704.0704 132.117634 
L 704.616 152.128587 
L 705.1616 141.088061 
L 705.7072 127.287404 
L 706.2528 157.64885 
L 706.7984 142.468127 
L 707.344 119.00701 
L 707.8896 155.578751 
L 708.4352 154.198686 
L 708.9808 134.187733 
L 709.5264 107.276451 
L 710.072 119.697043 
L 710.6176 117.626944 
L 711.1632 146.608324 
L 712.2544 102.446221 
L 712.8 141.088061 
L 713.3456 191.46046 
L 713.3456 191.46046 
" clip-path="url(#p26be60be98)" style="fill: none; stroke: #1f77b4; stroke-width: 2; stroke-linecap: square"/>
   </g>
   <g id="line2d_16">
    <path d="M 365.2528 320.4 
L 365.2528 43.2 
" clip-path="url(#p26be60be98)" style="fill: none; stroke-dasharray: 5.55,2.4; stroke-dashoffset: 0; stroke: #000000; stroke-width: 1.5"/>
   </g>
   <g id="line2d_17">
    <path d="M 462.9152 320.4 
L 462.9152 43.2 
" clip-path="url(#p26be60be98)" style="fill: none; stroke-dasharray: 5.55,2.4; stroke-dashoffset: 0; stroke: #000000; stroke-width: 1.5"/>
   </g>
   <g id="patch_3">
    <path d="M 99 320.4 
L 99 43.2 
" style="fill: none; stroke: #000000; stroke-width: 0.8; stroke-linejoin: miter; stroke-linecap: square"/>
   </g>
   <g id="patch_4">
    <path d="M 712.8 320.4 
L 712.8 43.2 
" style="fill: none; stroke: #000000; stroke-width: 0.8; stroke-linejoin: miter; stroke-linecap: square"/>
   </g>
   <g id="patch_5">
    <path d="M 99 320.4 
L 712.8 320.4 
" style="fill: none; stroke: #000000; stroke-width: 0.8; stroke-linejoin: miter; stroke-linecap: square"/>
   </g>
   <g id="patch_6">
    <path d="M 99 43.2 
L 712.8 43.2 
" style="fill: none; stroke: #000000; stroke-width: 0.8; stroke-linejoin: miter; stroke-linecap: square"/>
   </g>
   <g id="patch_7">
    <path d="M 426.112432 34.424279 
Q 420.833808 38.324095 415.555185 42.22391 
L 415.555185 42.22391 
Q 421.639663 39.76392 427.724142 37.30393 
z
" style="stroke: #000000; stroke-linecap: round"/>
   </g>
   <g id="text_17">
    <!-- Campaign -->
    <g style="fill: #ff0000" transform="translate(413.8112 30.6)scale(0.11 -0.11)">
     <defs>
      <path id="DejaVuSans-61" d="M 2194 1759 
Q 1497 1759 1228 1600 
Q 959 1441 959 1056 
Q 959 750 1161 570 
Q 1363 391 1709 391 
Q 2188 391 2477 730 
Q 2766 1069 2766 1631 
L 2766 1759 
L 2194 1759 
z
M 3341 1997 
L 3341 0 
L 2766 0 
L 2766 531 
Q 2569 213 2275 61 
Q 1981 -91 1556 -91 
Q 1019 -91 701 211 
Q 384 513 384 1019 
Q 384 1609 779 1909 
Q 1175 2209 1959 2209 
L 2766 2209 
L 2766 2266 
Q 2766 2663 2505 2880 
Q 2244 3097 1772 3097 
Q 1472 3097 1187 3025 
Q 903 2953 641 2809 
L 641 3341 
Q 956 3463 1253 3523 
Q 1550 3584 1831 3584 
Q 2591 3584 2966 3190 
Q 3341 2797 3341 1997 
z
" transform="scale(0.015625)"/>
      <path id="DejaVuSans-6d" d="M 3328 2828 
Q 3544 3216 3844 3400 
Q 4144 3584 4550 3584 
Q 5097 3584 5394 3201 
Q 5691 2819 5691 2113 
L 5691 0 
L 5113 0 
L 5113 2094 
Q 5113 2597 4934 2840 
Q 4756 3084 4391 3084 
Q 3944 3084 3684 2787 
Q 3425 2491 3425 1978 
L 3425 0 
L 2847 0 
L 2847 2094 
Q 2847 2600 2669 2842 
Q 2491 3084 2119 3084 
Q 1678 3084 1418 2786 
Q 1159 2488 1159 1978 
L 1159 0 
L 581 0 
L 581 3500 
L 1159 3500 
L 1159 2956 
Q 1356 3278 1631 3431 
Q 1906 3584 2284 3584 
Q 2666 3584 2933 3390 
Q 3200 3197 3328 2828 
z
" transform="scale(0.015625)"/>
      <path id="DejaVuSans-70" d="M 1159 525 
L 1159 -1331 
L 581 -1331 
L 581 3500 
L 1159 3500 
L 1159 2969 
Q 1341 3281 1617 3432 
Q 1894 3584 2278 3584 
Q 2916 3584 3314 3078 
Q 3713 2572 3713 1747 
Q 3713 922 3314 415 
Q 2916 -91 2278 -91 
Q 1894 -91 1617 61 
Q 1341 213 1159 525 
z
M 3116 1747 
Q 3116 2381 2855 2742 
Q 2594 3103 2138 3103 
Q 1681 3103 1420 2742 
Q 1159 2381 1159 1747 
Q 1159 1113 1420 752 
Q 1681 391 2138 391 
Q 2594 391 2855 752 
Q 3116 1113 3116 1747 
z
" transform="scale(0.015625)"/>
      <path id="DejaVuSans-69" d="M 603 3500 
L 1178 3500 
L 1178 0 
L 603 0 
L 603 3500 
z
M 603 4863 
L 1178 4863 
L 1178 4134 
L 603 4134 
L 603 4863 
z
" transform="scale(0.015625)"/>
      <path id="DejaVuSans-67" d="M 2906 1791 
Q 2906 2416 2648 2759 
Q 2391 3103 1925 3103 
Q 1463 3103 1205 2759 
Q 947 2416 947 1791 
Q 947 1169 1205 825 
Q 1463 481 1925 481 
Q 2391 481 2648 825 
Q 2906 1169 2906 1791 
z
M 3481 434 
Q 3481 -459 3084 -895 
Q 2688 -1331 1869 -1331 
Q 1566 -1331 1297 -1286 
Q 1028 -1241 775 -1147 
L 775 -588 
Q 1028 -725 1275 -790 
Q 1522 -856 1778 -856 
Q 2344 -856 2625 -561 
Q 2906 -266 2906 331 
L 2906 616 
Q 2728 306 2450 153 
Q 2172 0 1784 0 
Q 1141 0 747 490 
Q 353 981 353 1791 
Q 353 2603 747 3093 
Q 1141 3584 1784 3584 
Q 2172 3584 2450 3431 
Q 2728 3278 2906 2969 
L 2906 3500 
L 3481 3500 
L 3481 434 
z
" transform="scale(0.015625)"/>
     </defs>
     <use xlink:href="#DejaVuSans-43"/>
     <use xlink:href="#DejaVuSans-61" x="69.824219"/>
     <use xlink:href="#DejaVuSans-6d" x="131.103516"/>
     <use xlink:href="#DejaVuSans-70" x="228.515625"/>
     <use xlink:href="#DejaVuSans-61" x="291.992188"/>
     <use xlink:href="#DejaVuSans-69" x="353.271484"/>
     <use xlink:href="#DejaVuSans-67" x="381.054688"/>
     <use xlink:href="#DejaVuSans-6e" x="444.53125"/>
    </g>
   </g>
   <g id="legend_1">
    <g id="patch_8">
     <path d="M 108.8 95.49875 
L 214.94625 95.49875 
Q 217.74625 95.49875 217.74625 92.69875 
L 217.74625 53 
Q 217.74625 50.2 214.94625 50.2 
L 108.8 50.2 
Q 106 50.2 106 53 
L 106 92.69875 
Q 106 95.49875 108.8 95.49875 
z
" style="fill: #ffffff; opacity: 0.8; stroke: #cccccc; stroke-linejoin: miter"/>
    </g>
    <g id="line2d_18">
     <path d="M 111.6 61.537812 
L 125.6 61.537812 
L 139.6 61.537812 
" style="fill: none; stroke: #1f77b4; stroke-width: 2; stroke-linecap: square"/>
    </g>
    <g id="text_18">
     <!-- Sensor 2 -->
     <g transform="translate(150.8 66.437812)scale(0.14 -0.14)">
      <defs>
       <path id="DejaVuSans-53" d="M 3425 4513 
L 3425 3897 
Q 3066 4069 2747 4153 
Q 2428 4238 2131 4238 
Q 1616 4238 1336 4038 
Q 1056 3838 1056 3469 
Q 1056 3159 1242 3001 
Q 1428 2844 1947 2747 
L 2328 2669 
Q 3034 2534 3370 2195 
Q 3706 1856 3706 1288 
Q 3706 609 3251 259 
Q 2797 -91 1919 -91 
Q 1588 -91 1214 -16 
Q 841 59 441 206 
L 441 856 
Q 825 641 1194 531 
Q 1563 422 1919 422 
Q 2459 422 2753 634 
Q 3047 847 3047 1241 
Q 3047 1584 2836 1778 
Q 2625 1972 2144 2069 
L 1759 2144 
Q 1053 2284 737 2584 
Q 422 2884 422 3419 
Q 422 4038 858 4394 
Q 1294 4750 2059 4750 
Q 2388 4750 2728 4690 
Q 3069 4631 3425 4513 
z
" transform="scale(0.015625)"/>
      </defs>
      <use xlink:href="#DejaVuSans-53"/>
      <use xlink:href="#DejaVuSans-65" x="63.476562"/>
      <use xlink:href="#DejaVuSans-6e" x="125"/>
      <use xlink:href="#DejaVuSans-73" x="188.378906"/>
      <use xlink:href="#DejaVuSans-6f" x="240.478516"/>
      <use xlink:href="#DejaVuSans-72" x="301.660156"/>
      <use xlink:href="#DejaVuSans-20" x="342.773438"/>
      <use xlink:href="#DejaVuSans-32" x="374.560547"/>
     </g>
    </g>
    <g id="line2d_19">
     <path d="M 111.6 82.087187 
L 125.6 82.087187 
L 139.6 82.087187 
" style="fill: none; stroke: #b22222; stroke-width: 2; stroke-linecap: square"/>
    </g>
    <g id="text_19">
     <!-- RUL -->
     <g transform="translate(150.8 86.987187)scale(0.14 -0.14)">
      <defs>
       <path id="DejaVuSans-55" d="M 556 4666 
L 1191 4666 
L 1191 1831 
Q 1191 1081 1462 751 
Q 1734 422 2344 422 
Q 2950 422 3222 751 
Q 3494 1081 3494 1831 
L 3494 4666 
L 4128 4666 
L 4128 1753 
Q 4128 841 3676 375 
Q 3225 -91 2344 -91 
Q 1459 -91 1007 375 
Q 556 841 556 1753 
L 556 4666 
z
" transform="scale(0.015625)"/>
       <path id="DejaVuSans-4c" d="M 628 4666 
L 1259 4666 
L 1259 531 
L 3531 531 
L 3531 0 
L 628 0 
L 628 4666 
z
" transform="scale(0.015625)"/>
      </defs>
      <use xlink:href="#DejaVuSans-52"/>
      <use xlink:href="#DejaVuSans-55" x="69.482422"/>
      <use xlink:href="#DejaVuSans-4c" x="142.675781"/>
     </g>
    </g>
   </g>
  </g>
  <g id="axes_2">
   <g id="matplotlib.axis_3">
    <g id="ytick_9">
     <g id="line2d_20">
      <defs>
       <path id="mc0b18ae8d7" d="M 0 0 
L 3.5 0 
" style="stroke: #000000; stroke-width: 0.8"/>
      </defs>
      <g>
       <use xlink:href="#mc0b18ae8d7" x="712.8" y="307.8" style="stroke: #000000; stroke-width: 0.8"/>
      </g>
     </g>
     <g id="text_20">
      <!-- 0 -->
      <g transform="translate(719.8 313.118906)scale(0.14 -0.14)">
       <use xlink:href="#DejaVuSans-30"/>
      </g>
     </g>
    </g>
    <g id="ytick_10">
     <g id="line2d_21">
      <g>
       <use xlink:href="#mc0b18ae8d7" x="712.8" y="272.896953" style="stroke: #000000; stroke-width: 0.8"/>
      </g>
     </g>
     <g id="text_21">
      <!-- 50 -->
      <g transform="translate(719.8 278.215859)scale(0.14 -0.14)">
       <use xlink:href="#DejaVuSans-35"/>
       <use xlink:href="#DejaVuSans-30" x="63.623047"/>
      </g>
     </g>
    </g>
    <g id="ytick_11">
     <g id="line2d_22">
      <g>
       <use xlink:href="#mc0b18ae8d7" x="712.8" y="237.993906" style="stroke: #000000; stroke-width: 0.8"/>
      </g>
     </g>
     <g id="text_22">
      <!-- 100 -->
      <g transform="translate(719.8 243.312812)scale(0.14 -0.14)">
       <use xlink:href="#DejaVuSans-31"/>
       <use xlink:href="#DejaVuSans-30" x="63.623047"/>
       <use xlink:href="#DejaVuSans-30" x="127.246094"/>
      </g>
     </g>
    </g>
    <g id="ytick_12">
     <g id="line2d_23">
      <g>
       <use xlink:href="#mc0b18ae8d7" x="712.8" y="203.090859" style="stroke: #000000; stroke-width: 0.8"/>
      </g>
     </g>
     <g id="text_23">
      <!-- 150 -->
      <g transform="translate(719.8 208.409765)scale(0.14 -0.14)">
       <use xlink:href="#DejaVuSans-31"/>
       <use xlink:href="#DejaVuSans-35" x="63.623047"/>
       <use xlink:href="#DejaVuSans-30" x="127.246094"/>
      </g>
     </g>
    </g>
    <g id="ytick_13">
     <g id="line2d_24">
      <g>
       <use xlink:href="#mc0b18ae8d7" x="712.8" y="168.187812" style="stroke: #000000; stroke-width: 0.8"/>
      </g>
     </g>
     <g id="text_24">
      <!-- 200 -->
      <g transform="translate(719.8 173.506718)scale(0.14 -0.14)">
       <use xlink:href="#DejaVuSans-32"/>
       <use xlink:href="#DejaVuSans-30" x="63.623047"/>
       <use xlink:href="#DejaVuSans-30" x="127.246094"/>
      </g>
     </g>
    </g>
    <g id="ytick_14">
     <g id="line2d_25">
      <g>
       <use xlink:href="#mc0b18ae8d7" x="712.8" y="133.284765" style="stroke: #000000; stroke-width: 0.8"/>
      </g>
     </g>
     <g id="text_25">
      <!-- 250 -->
      <g transform="translate(719.8 138.603671)scale(0.14 -0.14)">
       <use xlink:href="#DejaVuSans-32"/>
       <use xlink:href="#DejaVuSans-35" x="63.623047"/>
       <use xlink:href="#DejaVuSans-30" x="127.246094"/>
      </g>
     </g>
    </g>
    <g id="ytick_15">
     <g id="line2d_26">
      <g>
       <use xlink:href="#mc0b18ae8d7" x="712.8" y="98.381717" style="stroke: #000000; stroke-width: 0.8"/>
      </g>
     </g>
     <g id="text_26">
      <!-- 300 -->
      <g transform="translate(719.8 103.700624)scale(0.14 -0.14)">
       <use xlink:href="#DejaVuSans-33"/>
       <use xlink:href="#DejaVuSans-30" x="63.623047"/>
       <use xlink:href="#DejaVuSans-30" x="127.246094"/>
      </g>
     </g>
    </g>
    <g id="ytick_16">
     <g id="line2d_27">
      <g>
       <use xlink:href="#mc0b18ae8d7" x="712.8" y="63.47867" style="stroke: #000000; stroke-width: 0.8"/>
      </g>
     </g>
     <g id="text_27">
      <!-- 350 -->
      <g transform="translate(719.8 68.797577)scale(0.14 -0.14)">
       <use xlink:href="#DejaVuSans-33"/>
       <use xlink:href="#DejaVuSans-35" x="63.623047"/>
       <use xlink:href="#DejaVuSans-30" x="127.246094"/>
      </g>
     </g>
    </g>
    <g id="text_28">
     <!-- RUL -->
     <g transform="translate(764.199687 199.655156)rotate(-90)scale(0.18 -0.18)">
      <use xlink:href="#DejaVuSans-52"/>
      <use xlink:href="#DejaVuSans-55" x="69.482422"/>
      <use xlink:href="#DejaVuSans-4c" x="142.675781"/>
     </g>
    </g>
   </g>
   <g id="line2d_28">
    <path d="M 104.456 174.47036 
L 208.6656 307.8 
L 209.2112 108.154571 
L 365.2528 307.8 
L 365.7984 183.545152 
L 462.9152 307.8 
L 463.4608 176.564543 
L 566.0336 307.8 
L 566.5792 120.719668 
L 712.8 307.8 
L 713.3456 177.262604 
L 713.3456 177.262604 
" clip-path="url(#p26be60be98)" style="fill: none; stroke: #b22222; stroke-width: 2; stroke-linecap: square"/>
   </g>
   <g id="patch_9">
    <path d="M 99 320.4 
L 99 43.2 
" style="fill: none; stroke: #000000; stroke-width: 0.8; stroke-linejoin: miter; stroke-linecap: square"/>
   </g>
   <g id="patch_10">
    <path d="M 712.8 320.4 
L 712.8 43.2 
" style="fill: none; stroke: #000000; stroke-width: 0.8; stroke-linejoin: miter; stroke-linecap: square"/>
   </g>
   <g id="patch_11">
    <path d="M 99 320.4 
L 712.8 320.4 
" style="fill: none; stroke: #000000; stroke-width: 0.8; stroke-linejoin: miter; stroke-linecap: square"/>
   </g>
   <g id="patch_12">
    <path d="M 99 43.2 
L 712.8 43.2 
" style="fill: none; stroke: #000000; stroke-width: 0.8; stroke-linejoin: miter; stroke-linecap: square"/>
   </g>
  </g>
 </g>
 <defs>
  <clipPath id="p26be60be98">
   <rect x="99" y="43.2" width="613.8" height="277.2"/>
  </clipPath>
 </defs>
</svg>
